<?xml version="1.0" encoding="UTF-8"?>
<svg xmlns="http://www.w3.org/2000/svg" viewBox="54.0 -16.0 1498.9 1212.0" font-family="sans-serif">
  <rect x="54.0" y="-16.0" width="1498.9" height="1212.0" fill="#eceff1"/>
  <text x="74.0" y="19.0" font-size="18" font-weight="700" fill="#263238">Baja SAE - whole car off-board harness</text>
  <g class="wires">
    <path class="wire" data-wire-index="0" d="M 293.0 134.0 L 322.5 134.0 L 322.5 300.0 L 84.0 300.0 L 84.0 242.0 L 104.0 242.0" stroke="#c62828" stroke-width="2.0" fill="none" opacity="0.85"><title>BATTERY.PWR to MASTER_SWITCH.A1 | 12.0 AWG | B+</title></path><path class="wire-hit" data-wire-index="0" d="M 293.0 134.0 L 322.5 134.0 L 322.5 300.0 L 84.0 300.0 L 84.0 242.0 L 104.0 242.0" stroke="transparent" stroke-width="12.0" fill="none" pointer-events="stroke"/><path class="wire" data-wire-index="1" d="M 326.5 242.0 L 346.5 242.0 L 346.5 56.0 L 847.8 56.0 L 847.8 764.0 L 867.8 764.0" stroke="#c62828" stroke-width="2.0" fill="none" opacity="0.85"><title>MASTER_SWITCH.B1 to ecvt.J4.+24V | 12.0 AWG | +24V</title></path><path class="wire-hit" data-wire-index="1" d="M 326.5 242.0 L 346.5 242.0 L 346.5 56.0 L 847.8 56.0 L 847.8 764.0 L 867.8 764.0" stroke="transparent" stroke-width="12.0" fill="none" pointer-events="stroke"/><path class="wire" data-wire-index="2" d="M 326.5 242.0 L 382.5 242.0 L 382.5 238.0 L 426.5 238.0 L 426.5 482.0 L 478.5 482.0" stroke="#c62828" stroke-width="1.5" fill="none" opacity="0.85"><title>MASTER_SWITCH.B1 to daq.J5.+24V | 14.0 AWG | +24V</title></path><path class="wire-hit" data-wire-index="2" d="M 326.5 242.0 L 382.5 242.0 L 382.5 238.0 L 426.5 238.0 L 426.5 482.0 L 478.5 482.0" stroke="transparent" stroke-width="12.0" fill="none" pointer-events="stroke"/><path class="wire" data-wire-index="3" d="M 326.5 242.0 L 370.5 242.0 L 370.5 80.0 L 1253.6 80.0 L 1253.6 242.0 L 1273.6 242.0" stroke="#c62828" stroke-width="1.5" fill="none" opacity="0.85"><title>MASTER_SWITCH.B1 to hud.J4.+24V | 14.0 AWG | +24V</title></path><path class="wire-hit" data-wire-index="3" d="M 326.5 242.0 L 370.5 242.0 L 370.5 80.0 L 1253.6 80.0 L 1253.6 242.0 L 1273.6 242.0" stroke="transparent" stroke-width="12.0" fill="none" pointer-events="stroke"/><path class="wire" data-wire-index="4" d="M 293.0 156.0 L 402.5 156.0 L 402.5 786.0 L 867.8 786.0" stroke="#212121" stroke-width="2.0" fill="none" opacity="0.85"><title>BATTERY.GND to ecvt.J4.GND | 12.0 AWG | GND</title></path><path class="wire-hit" data-wire-index="4" d="M 293.0 156.0 L 402.5 156.0 L 402.5 786.0 L 867.8 786.0" stroke="transparent" stroke-width="12.0" fill="none" pointer-events="stroke"/><path class="wire" data-wire-index="5" d="M 293.0 156.0 L 337.0 156.0 L 337.0 152.0 L 394.5 152.0 L 394.5 460.0 L 478.5 460.0" stroke="#212121" stroke-width="1.5" fill="none" opacity="0.85"><title>BATTERY.GND to daq.J5.GND | 14.0 AWG | GND</title></path><path class="wire-hit" data-wire-index="5" d="M 293.0 156.0 L 337.0 156.0 L 337.0 152.0 L 394.5 152.0 L 394.5 460.0 L 478.5 460.0" stroke="transparent" stroke-width="12.0" fill="none" pointer-events="stroke"/><path class="wire" data-wire-index="6" d="M 293.0 156.0 L 313.0 156.0 L 313.0 80.0 L 1277.6 80.0 L 1277.6 264.0 L 1273.6 264.0" stroke="#212121" stroke-width="1.5" fill="none" opacity="0.85"><title>BATTERY.GND to hud.J4.GND | 14.0 AWG | GND</title></path><path class="wire-hit" data-wire-index="6" d="M 293.0 156.0 L 313.0 156.0 L 313.0 80.0 L 1277.6 80.0 L 1277.6 264.0 L 1273.6 264.0" stroke="transparent" stroke-width="12.0" fill="none" pointer-events="stroke"/><path class="wire" data-wire-index="7" d="M 867.8 1112.0 L 781.8 1112.0 L 781.8 740.0 L 727.8 740.0 L 727.8 742.0 L 707.8 742.0" stroke="#f9a825" stroke-width="1.5" fill="none" opacity="0.85"><title>ecvt.J6.CANH to daq.J8.CANH | 22.0 AWG | CANH</title></path><path class="wire-hit" data-wire-index="7" d="M 867.8 1112.0 L 781.8 1112.0 L 781.8 740.0 L 727.8 740.0 L 727.8 742.0 L 707.8 742.0" stroke="transparent" stroke-width="12.0" fill="none" pointer-events="stroke"/><path class="wire" data-wire-index="8" d="M 867.8 1134.0 L 793.8 1134.0 L 793.8 762.0 L 727.8 762.0 L 727.8 764.0 L 707.8 764.0" stroke="#2e7d32" stroke-width="1.5" fill="none" opacity="0.85"><title>ecvt.J6.CANL to daq.J8.CANL | 22.0 AWG | CANL</title></path><path class="wire-hit" data-wire-index="8" d="M 867.8 1134.0 L 793.8 1134.0 L 793.8 762.0 L 727.8 762.0 L 727.8 764.0 L 707.8 764.0" stroke="transparent" stroke-width="12.0" fill="none" pointer-events="stroke"/><path class="wire" data-wire-index="9" d="M 707.8 742.0 L 727.8 742.0 L 727.8 44.0 L 1229.6 44.0 L 1229.6 156.0 L 1273.6 156.0" stroke="#f9a825" stroke-width="1.5" fill="none" opacity="0.85"><title>daq.J8.CANH to hud.J3.CANH | 22.0 AWG | CANH</title></path><path class="wire-hit" data-wire-index="9" d="M 707.8 742.0 L 727.8 742.0 L 727.8 44.0 L 1229.6 44.0 L 1229.6 156.0 L 1273.6 156.0" stroke="transparent" stroke-width="12.0" fill="none" pointer-events="stroke"/><path class="wire" data-wire-index="10" d="M 707.8 764.0 L 751.8 764.0 L 751.8 68.0 L 1289.6 68.0 L 1289.6 134.0 L 1273.6 134.0" stroke="#2e7d32" stroke-width="1.5" fill="none" opacity="0.85"><title>daq.J8.CANL to hud.J3.CANL | 22.0 AWG | CANL</title></path><path class="wire-hit" data-wire-index="10" d="M 707.8 764.0 L 751.8 764.0 L 751.8 68.0 L 1289.6 68.0 L 1289.6 134.0 L 1273.6 134.0" stroke="transparent" stroke-width="12.0" fill="none" pointer-events="stroke"/>
  </g>
  <g class="wire-labels">
    <text x="203.2" y="300.0" text-anchor="middle" dominant-baseline="middle" font-family="monospace" font-size="8" fill="#263238" paint-order="stroke" stroke="#eceff1" stroke-width="3" stroke-linejoin="round">B+</text><text x="847.8" y="410.0" text-anchor="middle" dominant-baseline="middle" font-family="monospace" font-size="8" fill="#263238" transform="rotate(-90,847.8,410.0)" paint-order="stroke" stroke="#eceff1" stroke-width="3" stroke-linejoin="round">+24V</text><text x="426.5" y="360.0" text-anchor="middle" dominant-baseline="middle" font-family="monospace" font-size="8" fill="#263238" transform="rotate(-90,426.5,360.0)" paint-order="stroke" stroke="#eceff1" stroke-width="3" stroke-linejoin="round">+24V</text><text x="812.1" y="80.0" text-anchor="middle" dominant-baseline="middle" font-family="monospace" font-size="8" fill="#263238" paint-order="stroke" stroke="#eceff1" stroke-width="3" stroke-linejoin="round">+24V</text><text x="402.5" y="471.0" text-anchor="middle" dominant-baseline="middle" font-family="monospace" font-size="8" fill="#263238" transform="rotate(-90,402.5,471.0)" paint-order="stroke" stroke="#eceff1" stroke-width="3" stroke-linejoin="round">GND</text><text x="394.5" y="306.0" text-anchor="middle" dominant-baseline="middle" font-family="monospace" font-size="8" fill="#263238" transform="rotate(-90,394.5,306.0)" paint-order="stroke" stroke="#eceff1" stroke-width="3" stroke-linejoin="round">GND</text><text x="795.3" y="80.0" text-anchor="middle" dominant-baseline="middle" font-family="monospace" font-size="8" fill="#263238" paint-order="stroke" stroke="#eceff1" stroke-width="3" stroke-linejoin="round">GND</text><text x="781.8" y="926.0" text-anchor="middle" dominant-baseline="middle" font-family="monospace" font-size="8" fill="#263238" transform="rotate(-90,781.8,926.0)" paint-order="stroke" stroke="#eceff1" stroke-width="3" stroke-linejoin="round">CANH</text><text x="793.8" y="948.0" text-anchor="middle" dominant-baseline="middle" font-family="monospace" font-size="8" fill="#263238" transform="rotate(-90,793.8,948.0)" paint-order="stroke" stroke="#eceff1" stroke-width="3" stroke-linejoin="round">CANL</text><text x="727.8" y="393.0" text-anchor="middle" dominant-baseline="middle" font-family="monospace" font-size="8" fill="#263238" transform="rotate(-90,727.8,393.0)" paint-order="stroke" stroke="#eceff1" stroke-width="3" stroke-linejoin="round">CANH</text><text x="751.8" y="416.0" text-anchor="middle" dominant-baseline="middle" font-family="monospace" font-size="8" fill="#263238" transform="rotate(-90,751.8,416.0)" paint-order="stroke" stroke="#eceff1" stroke-width="3" stroke-linejoin="round">CANL</text>
  </g>
  <g class="components">
    <g class="component" data-id="daq.J1">
<rect x="494.5" y="100.0" width="197.3" height="166.0" rx="4" fill="#fff" stroke="#455a64" stroke-width="1.5"/>
<rect x="494.5" y="100.0" width="197.3" height="26" rx="4" fill="#37474f"/>
<rect x="494.5" y="122.0" width="197.3" height="4" fill="#37474f"/>
<text x="593.2" y="117.0" text-anchor="middle" fill="white" font-family="sans-serif" font-size="13" font-weight="600">daq-node J1 (917784-1)</text>
<text x="500.5" y="138.0" font-family="monospace" font-size="11" fill="#546e7a">1</text>
<line x1="516.5" y1="127.0" x2="516.5" y2="142.0" stroke="#cfd8dc" stroke-width="1"/>
<text x="522.5" y="138.0" font-family="sans-serif" font-size="11" fill="#263238" >GPIO26</text>
<line x1="691.8" y1="134.0" x2="707.8" y2="134.0" stroke="#455a64" stroke-width="1.5"/>
<circle class="pin-hit" data-comp="daq.J1" data-pin="1" data-pin-name="GPIO26" cx="707.8" cy="134.0" r="6" fill="transparent" pointer-events="all"/>
<text x="500.5" y="160.0" font-family="monospace" font-size="11" fill="#546e7a">2</text>
<line x1="516.5" y1="149.0" x2="516.5" y2="164.0" stroke="#cfd8dc" stroke-width="1"/>
<text x="522.5" y="160.0" font-family="sans-serif" font-size="11" fill="#263238" >GPIO27</text>
<line x1="691.8" y1="156.0" x2="707.8" y2="156.0" stroke="#455a64" stroke-width="1.5"/>
<circle class="pin-hit" data-comp="daq.J1" data-pin="2" data-pin-name="GPIO27" cx="707.8" cy="156.0" r="6" fill="transparent" pointer-events="all"/>
<text x="500.5" y="182.0" font-family="monospace" font-size="11" fill="#546e7a">3</text>
<line x1="516.5" y1="171.0" x2="516.5" y2="186.0" stroke="#cfd8dc" stroke-width="1"/>
<text x="522.5" y="182.0" font-family="sans-serif" font-size="11" fill="#263238" >GPIO14</text>
<line x1="691.8" y1="178.0" x2="707.8" y2="178.0" stroke="#455a64" stroke-width="1.5"/>
<circle class="pin-hit" data-comp="daq.J1" data-pin="3" data-pin-name="GPIO14" cx="707.8" cy="178.0" r="6" fill="transparent" pointer-events="all"/>
<text x="500.5" y="204.0" font-family="monospace" font-size="11" fill="#546e7a">4</text>
<line x1="516.5" y1="193.0" x2="516.5" y2="208.0" stroke="#cfd8dc" stroke-width="1"/>
<text x="522.5" y="204.0" font-family="sans-serif" font-size="11" fill="#263238" >GND</text>
<line x1="691.8" y1="200.0" x2="707.8" y2="200.0" stroke="#455a64" stroke-width="1.5"/>
<circle class="pin-hit" data-comp="daq.J1" data-pin="4" data-pin-name="GND" cx="707.8" cy="200.0" r="6" fill="transparent" pointer-events="all"/>
<text x="500.5" y="226.0" font-family="monospace" font-size="11" fill="#546e7a">5</text>
<line x1="516.5" y1="215.0" x2="516.5" y2="230.0" stroke="#cfd8dc" stroke-width="1"/>
<text x="522.5" y="226.0" font-family="sans-serif" font-size="11" fill="#263238" >+3V3</text>
<line x1="691.8" y1="222.0" x2="707.8" y2="222.0" stroke="#455a64" stroke-width="1.5"/>
<circle class="pin-hit" data-comp="daq.J1" data-pin="5" data-pin-name="+3V3" cx="707.8" cy="222.0" r="6" fill="transparent" pointer-events="all"/>
<text x="500.5" y="248.0" font-family="monospace" font-size="11" fill="#546e7a">6</text>
<line x1="516.5" y1="237.0" x2="516.5" y2="252.0" stroke="#cfd8dc" stroke-width="1"/>
<text x="522.5" y="248.0" font-family="sans-serif" font-size="11" fill="#263238" >+5V</text>
<line x1="691.8" y1="244.0" x2="707.8" y2="244.0" stroke="#455a64" stroke-width="1.5"/>
<circle class="pin-hit" data-comp="daq.J1" data-pin="6" data-pin-name="+5V" cx="707.8" cy="244.0" r="6" fill="transparent" pointer-events="all"/>
</g><g class="component" data-id="daq.J4">
<rect x="494.5" y="296.0" width="197.3" height="100.0" rx="4" fill="#fff" stroke="#455a64" stroke-width="1.5"/>
<rect x="494.5" y="296.0" width="197.3" height="26" rx="4" fill="#37474f"/>
<rect x="494.5" y="318.0" width="197.3" height="4" fill="#37474f"/>
<text x="593.2" y="313.0" text-anchor="middle" fill="white" font-family="sans-serif" font-size="13" font-weight="600">daq-node J4 (917781-1)</text>
<text x="500.5" y="334.0" font-family="monospace" font-size="11" fill="#546e7a">1</text>
<line x1="516.5" y1="323.0" x2="516.5" y2="338.0" stroke="#cfd8dc" stroke-width="1"/>
<text x="522.5" y="334.0" font-family="sans-serif" font-size="11" fill="#263238" >GND</text>
<line x1="691.8" y1="330.0" x2="707.8" y2="330.0" stroke="#455a64" stroke-width="1.5"/>
<circle class="pin-hit" data-comp="daq.J4" data-pin="1" data-pin-name="GND" cx="707.8" cy="330.0" r="6" fill="transparent" pointer-events="all"/>
<text x="500.5" y="356.0" font-family="monospace" font-size="11" fill="#546e7a">2</text>
<line x1="516.5" y1="345.0" x2="516.5" y2="360.0" stroke="#cfd8dc" stroke-width="1"/>
<text x="522.5" y="356.0" font-family="sans-serif" font-size="11" fill="#263238" >Fuel_Sensor</text>
<line x1="691.8" y1="352.0" x2="707.8" y2="352.0" stroke="#455a64" stroke-width="1.5"/>
<circle class="pin-hit" data-comp="daq.J4" data-pin="2" data-pin-name="Fuel_Sensor" cx="707.8" cy="352.0" r="6" fill="transparent" pointer-events="all"/>
<text x="500.5" y="378.0" font-family="monospace" font-size="11" fill="#546e7a">3</text>
<line x1="516.5" y1="367.0" x2="516.5" y2="382.0" stroke="#cfd8dc" stroke-width="1"/>
<text x="522.5" y="378.0" font-family="sans-serif" font-size="11" fill="#263238" >+5V</text>
<line x1="691.8" y1="374.0" x2="707.8" y2="374.0" stroke="#455a64" stroke-width="1.5"/>
<circle class="pin-hit" data-comp="daq.J4" data-pin="3" data-pin-name="+5V" cx="707.8" cy="374.0" r="6" fill="transparent" pointer-events="all"/>
</g><g class="component" data-id="daq.J5">
<rect x="494.5" y="426.0" width="197.3" height="78.0" rx="4" fill="#fff" stroke="#455a64" stroke-width="1.5"/>
<rect x="494.5" y="426.0" width="197.3" height="26" rx="4" fill="#37474f"/>
<rect x="494.5" y="448.0" width="197.3" height="4" fill="#37474f"/>
<text x="593.2" y="443.0" text-anchor="middle" fill="white" font-family="sans-serif" font-size="13" font-weight="600">daq-node J5 (15311026)</text>
<text x="500.5" y="464.0" font-family="monospace" font-size="11" fill="#546e7a">1</text>
<line x1="516.5" y1="453.0" x2="516.5" y2="468.0" stroke="#cfd8dc" stroke-width="1"/>
<text x="522.5" y="464.0" font-family="sans-serif" font-size="11" fill="#263238" >GND</text>
<line x1="494.5" y1="460.0" x2="478.5" y2="460.0" stroke="#455a64" stroke-width="1.5"/>
<circle class="pin-hit" data-comp="daq.J5" data-pin="1" data-pin-name="GND" cx="478.5" cy="460.0" r="6" fill="transparent" pointer-events="all"/>
<text x="500.5" y="486.0" font-family="monospace" font-size="11" fill="#546e7a">2</text>
<line x1="516.5" y1="475.0" x2="516.5" y2="490.0" stroke="#cfd8dc" stroke-width="1"/>
<text x="522.5" y="486.0" font-family="sans-serif" font-size="11" fill="#263238" >+24V</text>
<line x1="494.5" y1="482.0" x2="478.5" y2="482.0" stroke="#455a64" stroke-width="1.5"/>
<circle class="pin-hit" data-comp="daq.J5" data-pin="2" data-pin-name="+24V" cx="478.5" cy="482.0" r="6" fill="transparent" pointer-events="all"/>
</g><g class="component" data-id="daq.J7">
<rect x="494.5" y="534.0" width="197.3" height="144.0" rx="4" fill="#fff" stroke="#455a64" stroke-width="1.5"/>
<rect x="494.5" y="534.0" width="197.3" height="26" rx="4" fill="#37474f"/>
<rect x="494.5" y="556.0" width="197.3" height="4" fill="#37474f"/>
<text x="593.2" y="551.0" text-anchor="middle" fill="white" font-family="sans-serif" font-size="13" font-weight="600">daq-node J7 (917783-1)</text>
<text x="500.5" y="572.0" font-family="monospace" font-size="11" fill="#546e7a">1</text>
<line x1="516.5" y1="561.0" x2="516.5" y2="576.0" stroke="#cfd8dc" stroke-width="1"/>
<text x="522.5" y="572.0" font-family="sans-serif" font-size="11" fill="#263238" >GND</text>
<line x1="691.8" y1="568.0" x2="707.8" y2="568.0" stroke="#455a64" stroke-width="1.5"/>
<circle class="pin-hit" data-comp="daq.J7" data-pin="1" data-pin-name="GND" cx="707.8" cy="568.0" r="6" fill="transparent" pointer-events="all"/>
<text x="500.5" y="594.0" font-family="monospace" font-size="11" fill="#546e7a">2</text>
<line x1="516.5" y1="583.0" x2="516.5" y2="598.0" stroke="#cfd8dc" stroke-width="1"/>
<text x="522.5" y="594.0" font-family="sans-serif" font-size="11" fill="#263238" >TEMP_SENSOR</text>
<line x1="691.8" y1="590.0" x2="707.8" y2="590.0" stroke="#455a64" stroke-width="1.5"/>
<circle class="pin-hit" data-comp="daq.J7" data-pin="2" data-pin-name="TEMP_SENSOR" cx="707.8" cy="590.0" r="6" fill="transparent" pointer-events="all"/>
<text x="500.5" y="616.0" font-family="monospace" font-size="11" fill="#546e7a">3</text>
<line x1="516.5" y1="605.0" x2="516.5" y2="620.0" stroke="#cfd8dc" stroke-width="1"/>
<text x="522.5" y="616.0" font-family="sans-serif" font-size="11" fill="#263238" >RIGHT_HALL</text>
<line x1="691.8" y1="612.0" x2="707.8" y2="612.0" stroke="#455a64" stroke-width="1.5"/>
<circle class="pin-hit" data-comp="daq.J7" data-pin="3" data-pin-name="RIGHT_HALL" cx="707.8" cy="612.0" r="6" fill="transparent" pointer-events="all"/>
<text x="500.5" y="638.0" font-family="monospace" font-size="11" fill="#546e7a">4</text>
<line x1="516.5" y1="627.0" x2="516.5" y2="642.0" stroke="#cfd8dc" stroke-width="1"/>
<text x="522.5" y="638.0" font-family="sans-serif" font-size="11" fill="#263238" >LEFT_HALL</text>
<line x1="691.8" y1="634.0" x2="707.8" y2="634.0" stroke="#455a64" stroke-width="1.5"/>
<circle class="pin-hit" data-comp="daq.J7" data-pin="4" data-pin-name="LEFT_HALL" cx="707.8" cy="634.0" r="6" fill="transparent" pointer-events="all"/>
<text x="500.5" y="660.0" font-family="monospace" font-size="11" fill="#546e7a">5</text>
<line x1="516.5" y1="649.0" x2="516.5" y2="664.0" stroke="#cfd8dc" stroke-width="1"/>
<text x="522.5" y="660.0" font-family="sans-serif" font-size="11" fill="#263238" >+3V3</text>
<line x1="691.8" y1="656.0" x2="707.8" y2="656.0" stroke="#455a64" stroke-width="1.5"/>
<circle class="pin-hit" data-comp="daq.J7" data-pin="5" data-pin-name="+3V3" cx="707.8" cy="656.0" r="6" fill="transparent" pointer-events="all"/>
</g><g class="component" data-id="daq.J8">
<rect x="494.5" y="708.0" width="197.3" height="78.0" rx="4" fill="#fff" stroke="#455a64" stroke-width="1.5"/>
<rect x="494.5" y="708.0" width="197.3" height="26" rx="4" fill="#37474f"/>
<rect x="494.5" y="730.0" width="197.3" height="4" fill="#37474f"/>
<text x="593.2" y="725.0" text-anchor="middle" fill="white" font-family="sans-serif" font-size="13" font-weight="600">daq-node J8 (917780-1)</text>
<text x="500.5" y="746.0" font-family="monospace" font-size="11" fill="#546e7a">1</text>
<line x1="516.5" y1="735.0" x2="516.5" y2="750.0" stroke="#cfd8dc" stroke-width="1"/>
<text x="522.5" y="746.0" font-family="sans-serif" font-size="11" fill="#263238" >CANH</text>
<line x1="691.8" y1="742.0" x2="707.8" y2="742.0" stroke="#455a64" stroke-width="1.5"/>
<circle class="pin-hit" data-comp="daq.J8" data-pin="1" data-pin-name="CANH" cx="707.8" cy="742.0" r="6" fill="transparent" pointer-events="all"/>
<text x="500.5" y="768.0" font-family="monospace" font-size="11" fill="#546e7a">2</text>
<line x1="516.5" y1="757.0" x2="516.5" y2="772.0" stroke="#cfd8dc" stroke-width="1"/>
<text x="522.5" y="768.0" font-family="sans-serif" font-size="11" fill="#263238" >CANL</text>
<line x1="691.8" y1="764.0" x2="707.8" y2="764.0" stroke="#455a64" stroke-width="1.5"/>
<circle class="pin-hit" data-comp="daq.J8" data-pin="2" data-pin-name="CANL" cx="707.8" cy="764.0" r="6" fill="transparent" pointer-events="all"/>
</g><g class="component" data-id="ecvt.J1">
<rect x="883.8" y="100.0" width="253.7" height="122.0" rx="4" fill="#fff" stroke="#455a64" stroke-width="1.5"/>
<rect x="883.8" y="100.0" width="253.7" height="26" rx="4" fill="#37474f"/>
<rect x="883.8" y="122.0" width="253.7" height="4" fill="#37474f"/>
<text x="1010.7" y="117.0" text-anchor="middle" fill="white" font-family="sans-serif" font-size="13" font-weight="600">ecvt-controller J1 (917782-1)</text>
<text x="889.8" y="138.0" font-family="monospace" font-size="11" fill="#546e7a">1</text>
<line x1="905.8" y1="127.0" x2="905.8" y2="142.0" stroke="#cfd8dc" stroke-width="1"/>
<text x="911.8" y="138.0" font-family="sans-serif" font-size="11" fill="#263238" >+5V</text>
<line x1="1137.6" y1="134.0" x2="1153.6" y2="134.0" stroke="#455a64" stroke-width="1.5"/>
<circle class="pin-hit" data-comp="ecvt.J1" data-pin="1" data-pin-name="+5V" cx="1153.6" cy="134.0" r="6" fill="transparent" pointer-events="all"/>
<text x="889.8" y="160.0" font-family="monospace" font-size="11" fill="#546e7a">2</text>
<line x1="905.8" y1="149.0" x2="905.8" y2="164.0" stroke="#cfd8dc" stroke-width="1"/>
<text x="911.8" y="160.0" font-family="sans-serif" font-size="11" fill="#263238" >+5V</text>
<line x1="1137.6" y1="156.0" x2="1153.6" y2="156.0" stroke="#455a64" stroke-width="1.5"/>
<circle class="pin-hit" data-comp="ecvt.J1" data-pin="2" data-pin-name="+5V" cx="1153.6" cy="156.0" r="6" fill="transparent" pointer-events="all"/>
<text x="889.8" y="182.0" font-family="monospace" font-size="11" fill="#546e7a">3</text>
<line x1="905.8" y1="171.0" x2="905.8" y2="186.0" stroke="#cfd8dc" stroke-width="1"/>
<text x="911.8" y="182.0" font-family="sans-serif" font-size="11" fill="#263238" >GND</text>
<line x1="1137.6" y1="178.0" x2="1153.6" y2="178.0" stroke="#455a64" stroke-width="1.5"/>
<circle class="pin-hit" data-comp="ecvt.J1" data-pin="3" data-pin-name="GND" cx="1153.6" cy="178.0" r="6" fill="transparent" pointer-events="all"/>
<text x="889.8" y="204.0" font-family="monospace" font-size="11" fill="#546e7a">4</text>
<line x1="905.8" y1="193.0" x2="905.8" y2="208.0" stroke="#cfd8dc" stroke-width="1"/>
<text x="911.8" y="204.0" font-family="sans-serif" font-size="11" fill="#263238" >GND</text>
<line x1="1137.6" y1="200.0" x2="1153.6" y2="200.0" stroke="#455a64" stroke-width="1.5"/>
<circle class="pin-hit" data-comp="ecvt.J1" data-pin="4" data-pin-name="GND" cx="1153.6" cy="200.0" r="6" fill="transparent" pointer-events="all"/>
</g><g class="component" data-id="ecvt.J10">
<rect x="883.8" y="252.0" width="261.8" height="100.0" rx="4" fill="#fff" stroke="#455a64" stroke-width="1.5"/>
<rect x="883.8" y="252.0" width="261.8" height="26" rx="4" fill="#37474f"/>
<rect x="883.8" y="274.0" width="261.8" height="4" fill="#37474f"/>
<text x="1014.7" y="269.0" text-anchor="middle" fill="white" font-family="sans-serif" font-size="13" font-weight="600">ecvt-controller J10 (917781-1)</text>
<text x="889.8" y="290.0" font-family="monospace" font-size="11" fill="#546e7a">1</text>
<line x1="905.8" y1="279.0" x2="905.8" y2="294.0" stroke="#cfd8dc" stroke-width="1"/>
<text x="911.8" y="290.0" font-family="sans-serif" font-size="11" fill="#263238" >+3V3</text>
<line x1="1145.6" y1="286.0" x2="1161.6" y2="286.0" stroke="#455a64" stroke-width="1.5"/>
<circle class="pin-hit" data-comp="ecvt.J10" data-pin="1" data-pin-name="+3V3" cx="1161.6" cy="286.0" r="6" fill="transparent" pointer-events="all"/>
<text x="889.8" y="312.0" font-family="monospace" font-size="11" fill="#546e7a">2</text>
<line x1="905.8" y1="301.0" x2="905.8" y2="316.0" stroke="#cfd8dc" stroke-width="1"/>
<text x="911.8" y="312.0" font-family="sans-serif" font-size="11" fill="#263238" >MANUAL_MODE</text>
<line x1="1145.6" y1="308.0" x2="1161.6" y2="308.0" stroke="#455a64" stroke-width="1.5"/>
<circle class="pin-hit" data-comp="ecvt.J10" data-pin="2" data-pin-name="MANUAL_MODE" cx="1161.6" cy="308.0" r="6" fill="transparent" pointer-events="all"/>
<text x="889.8" y="334.0" font-family="monospace" font-size="11" fill="#546e7a">3</text>
<line x1="905.8" y1="323.0" x2="905.8" y2="338.0" stroke="#cfd8dc" stroke-width="1"/>
<text x="911.8" y="334.0" font-family="sans-serif" font-size="11" fill="#263238" >GND</text>
<line x1="1145.6" y1="330.0" x2="1161.6" y2="330.0" stroke="#455a64" stroke-width="1.5"/>
<circle class="pin-hit" data-comp="ecvt.J10" data-pin="3" data-pin-name="GND" cx="1161.6" cy="330.0" r="6" fill="transparent" pointer-events="all"/>
</g><g class="component" data-id="ecvt.J2">
<rect x="883.8" y="382.0" width="253.7" height="122.0" rx="4" fill="#fff" stroke="#455a64" stroke-width="1.5"/>
<rect x="883.8" y="382.0" width="253.7" height="26" rx="4" fill="#37474f"/>
<rect x="883.8" y="404.0" width="253.7" height="4" fill="#37474f"/>
<text x="1010.7" y="399.0" text-anchor="middle" fill="white" font-family="sans-serif" font-size="13" font-weight="600">ecvt-controller J2 (15311046)</text>
<text x="889.8" y="420.0" font-family="monospace" font-size="11" fill="#546e7a">1</text>
<line x1="905.8" y1="409.0" x2="905.8" y2="424.0" stroke="#cfd8dc" stroke-width="1"/>
<text x="911.8" y="420.0" font-family="sans-serif" font-size="11" fill="#263238" >A+</text>
<line x1="1137.6" y1="416.0" x2="1153.6" y2="416.0" stroke="#455a64" stroke-width="1.5"/>
<circle class="pin-hit" data-comp="ecvt.J2" data-pin="1" data-pin-name="A+" cx="1153.6" cy="416.0" r="6" fill="transparent" pointer-events="all"/>
<text x="889.8" y="442.0" font-family="monospace" font-size="11" fill="#546e7a">2</text>
<line x1="905.8" y1="431.0" x2="905.8" y2="446.0" stroke="#cfd8dc" stroke-width="1"/>
<text x="911.8" y="442.0" font-family="sans-serif" font-size="11" fill="#263238" >A-</text>
<line x1="1137.6" y1="438.0" x2="1153.6" y2="438.0" stroke="#455a64" stroke-width="1.5"/>
<circle class="pin-hit" data-comp="ecvt.J2" data-pin="2" data-pin-name="A-" cx="1153.6" cy="438.0" r="6" fill="transparent" pointer-events="all"/>
<text x="889.8" y="464.0" font-family="monospace" font-size="11" fill="#546e7a">3</text>
<line x1="905.8" y1="453.0" x2="905.8" y2="468.0" stroke="#cfd8dc" stroke-width="1"/>
<text x="911.8" y="464.0" font-family="sans-serif" font-size="11" fill="#263238" >B+</text>
<line x1="1137.6" y1="460.0" x2="1153.6" y2="460.0" stroke="#455a64" stroke-width="1.5"/>
<circle class="pin-hit" data-comp="ecvt.J2" data-pin="3" data-pin-name="B+" cx="1153.6" cy="460.0" r="6" fill="transparent" pointer-events="all"/>
<text x="889.8" y="486.0" font-family="monospace" font-size="11" fill="#546e7a">4</text>
<line x1="905.8" y1="475.0" x2="905.8" y2="490.0" stroke="#cfd8dc" stroke-width="1"/>
<text x="911.8" y="486.0" font-family="sans-serif" font-size="11" fill="#263238" >B-</text>
<line x1="1137.6" y1="482.0" x2="1153.6" y2="482.0" stroke="#455a64" stroke-width="1.5"/>
<circle class="pin-hit" data-comp="ecvt.J2" data-pin="4" data-pin-name="B-" cx="1153.6" cy="482.0" r="6" fill="transparent" pointer-events="all"/>
</g><g class="component" data-id="ecvt.J3">
<rect x="883.8" y="534.0" width="253.7" height="166.0" rx="4" fill="#fff" stroke="#455a64" stroke-width="1.5"/>
<rect x="883.8" y="534.0" width="253.7" height="26" rx="4" fill="#37474f"/>
<rect x="883.8" y="556.0" width="253.7" height="4" fill="#37474f"/>
<text x="1010.7" y="551.0" text-anchor="middle" fill="white" font-family="sans-serif" font-size="13" font-weight="600">ecvt-controller J3 (917784-1)</text>
<text x="889.8" y="572.0" font-family="monospace" font-size="11" fill="#546e7a">1</text>
<line x1="905.8" y1="561.0" x2="905.8" y2="576.0" stroke="#cfd8dc" stroke-width="1"/>
<text x="911.8" y="572.0" font-family="sans-serif" font-size="11" fill="#263238" >+3V3</text>
<line x1="1137.6" y1="568.0" x2="1153.6" y2="568.0" stroke="#455a64" stroke-width="1.5"/>
<circle class="pin-hit" data-comp="ecvt.J3" data-pin="1" data-pin-name="+3V3" cx="1153.6" cy="568.0" r="6" fill="transparent" pointer-events="all"/>
<text x="889.8" y="594.0" font-family="monospace" font-size="11" fill="#546e7a">2</text>
<line x1="905.8" y1="583.0" x2="905.8" y2="598.0" stroke="#cfd8dc" stroke-width="1"/>
<text x="911.8" y="594.0" font-family="sans-serif" font-size="11" fill="#263238" >PRIM_RPM</text>
<line x1="1137.6" y1="590.0" x2="1153.6" y2="590.0" stroke="#455a64" stroke-width="1.5"/>
<circle class="pin-hit" data-comp="ecvt.J3" data-pin="2" data-pin-name="PRIM_RPM" cx="1153.6" cy="590.0" r="6" fill="transparent" pointer-events="all"/>
<text x="889.8" y="616.0" font-family="monospace" font-size="11" fill="#546e7a">3</text>
<line x1="905.8" y1="605.0" x2="905.8" y2="620.0" stroke="#cfd8dc" stroke-width="1"/>
<text x="911.8" y="616.0" font-family="sans-serif" font-size="11" fill="#263238" >GND</text>
<line x1="1137.6" y1="612.0" x2="1153.6" y2="612.0" stroke="#455a64" stroke-width="1.5"/>
<circle class="pin-hit" data-comp="ecvt.J3" data-pin="3" data-pin-name="GND" cx="1153.6" cy="612.0" r="6" fill="transparent" pointer-events="all"/>
<text x="889.8" y="638.0" font-family="monospace" font-size="11" fill="#546e7a">4</text>
<line x1="905.8" y1="627.0" x2="905.8" y2="642.0" stroke="#cfd8dc" stroke-width="1"/>
<text x="911.8" y="638.0" font-family="sans-serif" font-size="11" fill="#263238" >+3V3</text>
<line x1="1137.6" y1="634.0" x2="1153.6" y2="634.0" stroke="#455a64" stroke-width="1.5"/>
<circle class="pin-hit" data-comp="ecvt.J3" data-pin="4" data-pin-name="+3V3" cx="1153.6" cy="634.0" r="6" fill="transparent" pointer-events="all"/>
<text x="889.8" y="660.0" font-family="monospace" font-size="11" fill="#546e7a">5</text>
<line x1="905.8" y1="649.0" x2="905.8" y2="664.0" stroke="#cfd8dc" stroke-width="1"/>
<text x="911.8" y="660.0" font-family="sans-serif" font-size="11" fill="#263238" >SEC_RPM</text>
<line x1="1137.6" y1="656.0" x2="1153.6" y2="656.0" stroke="#455a64" stroke-width="1.5"/>
<circle class="pin-hit" data-comp="ecvt.J3" data-pin="5" data-pin-name="SEC_RPM" cx="1153.6" cy="656.0" r="6" fill="transparent" pointer-events="all"/>
<text x="889.8" y="682.0" font-family="monospace" font-size="11" fill="#546e7a">6</text>
<line x1="905.8" y1="671.0" x2="905.8" y2="686.0" stroke="#cfd8dc" stroke-width="1"/>
<text x="911.8" y="682.0" font-family="sans-serif" font-size="11" fill="#263238" >GND</text>
<line x1="1137.6" y1="678.0" x2="1153.6" y2="678.0" stroke="#455a64" stroke-width="1.5"/>
<circle class="pin-hit" data-comp="ecvt.J3" data-pin="6" data-pin-name="GND" cx="1153.6" cy="678.0" r="6" fill="transparent" pointer-events="all"/>
</g><g class="component" data-id="ecvt.J4">
<rect x="883.8" y="730.0" width="253.7" height="78.0" rx="4" fill="#fff" stroke="#455a64" stroke-width="1.5"/>
<rect x="883.8" y="730.0" width="253.7" height="26" rx="4" fill="#37474f"/>
<rect x="883.8" y="752.0" width="253.7" height="4" fill="#37474f"/>
<text x="1010.7" y="747.0" text-anchor="middle" fill="white" font-family="sans-serif" font-size="13" font-weight="600">ecvt-controller J4 (15311026)</text>
<text x="889.8" y="768.0" font-family="monospace" font-size="11" fill="#546e7a">1</text>
<line x1="905.8" y1="757.0" x2="905.8" y2="772.0" stroke="#cfd8dc" stroke-width="1"/>
<text x="911.8" y="768.0" font-family="sans-serif" font-size="11" fill="#263238" >+24V</text>
<line x1="883.8" y1="764.0" x2="867.8" y2="764.0" stroke="#455a64" stroke-width="1.5"/>
<circle class="pin-hit" data-comp="ecvt.J4" data-pin="1" data-pin-name="+24V" cx="867.8" cy="764.0" r="6" fill="transparent" pointer-events="all"/>
<text x="889.8" y="790.0" font-family="monospace" font-size="11" fill="#546e7a">2</text>
<line x1="905.8" y1="779.0" x2="905.8" y2="794.0" stroke="#cfd8dc" stroke-width="1"/>
<text x="911.8" y="790.0" font-family="sans-serif" font-size="11" fill="#263238" >GND</text>
<line x1="883.8" y1="786.0" x2="867.8" y2="786.0" stroke="#455a64" stroke-width="1.5"/>
<circle class="pin-hit" data-comp="ecvt.J4" data-pin="2" data-pin-name="GND" cx="867.8" cy="786.0" r="6" fill="transparent" pointer-events="all"/>
</g><g class="component" data-id="ecvt.J5">
<rect x="883.8" y="838.0" width="253.7" height="210.0" rx="4" fill="#fff" stroke="#455a64" stroke-width="1.5"/>
<rect x="883.8" y="838.0" width="253.7" height="26" rx="4" fill="#37474f"/>
<rect x="883.8" y="860.0" width="253.7" height="4" fill="#37474f"/>
<text x="1010.7" y="855.0" text-anchor="middle" fill="white" font-family="sans-serif" font-size="13" font-weight="600">ecvt-controller J5 (917786-1)</text>
<text x="889.8" y="876.0" font-family="monospace" font-size="11" fill="#546e7a">1</text>
<line x1="905.8" y1="865.0" x2="905.8" y2="880.0" stroke="#cfd8dc" stroke-width="1"/>
<text x="911.8" y="876.0" font-family="sans-serif" font-size="11" fill="#263238" >+3V3</text>
<line x1="1137.6" y1="872.0" x2="1153.6" y2="872.0" stroke="#455a64" stroke-width="1.5"/>
<circle class="pin-hit" data-comp="ecvt.J5" data-pin="1" data-pin-name="+3V3" cx="1153.6" cy="872.0" r="6" fill="transparent" pointer-events="all"/>
<text x="889.8" y="898.0" font-family="monospace" font-size="11" fill="#546e7a">2</text>
<line x1="905.8" y1="887.0" x2="905.8" y2="902.0" stroke="#cfd8dc" stroke-width="1"/>
<text x="911.8" y="898.0" font-family="sans-serif" font-size="11" fill="#263238" >LIN_POT</text>
<line x1="1137.6" y1="894.0" x2="1153.6" y2="894.0" stroke="#455a64" stroke-width="1.5"/>
<circle class="pin-hit" data-comp="ecvt.J5" data-pin="2" data-pin-name="LIN_POT" cx="1153.6" cy="894.0" r="6" fill="transparent" pointer-events="all"/>
<text x="889.8" y="920.0" font-family="monospace" font-size="11" fill="#546e7a">3</text>
<line x1="905.8" y1="909.0" x2="905.8" y2="924.0" stroke="#cfd8dc" stroke-width="1"/>
<text x="911.8" y="920.0" font-family="sans-serif" font-size="11" fill="#263238" >GND</text>
<line x1="1137.6" y1="916.0" x2="1153.6" y2="916.0" stroke="#455a64" stroke-width="1.5"/>
<circle class="pin-hit" data-comp="ecvt.J5" data-pin="3" data-pin-name="GND" cx="1153.6" cy="916.0" r="6" fill="transparent" pointer-events="all"/>
<text x="889.8" y="942.0" font-family="monospace" font-size="11" fill="#546e7a">4</text>
<line x1="905.8" y1="931.0" x2="905.8" y2="946.0" stroke="#cfd8dc" stroke-width="1"/>
<text x="911.8" y="942.0" font-family="sans-serif" font-size="11" fill="#263238" >+3V3</text>
<line x1="1137.6" y1="938.0" x2="1153.6" y2="938.0" stroke="#455a64" stroke-width="1.5"/>
<circle class="pin-hit" data-comp="ecvt.J5" data-pin="4" data-pin-name="+3V3" cx="1153.6" cy="938.0" r="6" fill="transparent" pointer-events="all"/>
<text x="889.8" y="964.0" font-family="monospace" font-size="11" fill="#546e7a">5</text>
<line x1="905.8" y1="953.0" x2="905.8" y2="968.0" stroke="#cfd8dc" stroke-width="1"/>
<text x="911.8" y="964.0" font-family="sans-serif" font-size="11" fill="#263238" >+5V</text>
<line x1="1137.6" y1="960.0" x2="1153.6" y2="960.0" stroke="#455a64" stroke-width="1.5"/>
<circle class="pin-hit" data-comp="ecvt.J5" data-pin="5" data-pin-name="+5V" cx="1153.6" cy="960.0" r="6" fill="transparent" pointer-events="all"/>
<text x="889.8" y="986.0" font-family="monospace" font-size="11" fill="#546e7a">6</text>
<line x1="905.8" y1="975.0" x2="905.8" y2="990.0" stroke="#cfd8dc" stroke-width="1"/>
<text x="911.8" y="986.0" font-family="sans-serif" font-size="11" fill="#263238" >ENCODER_PWM/A</text>
<line x1="1137.6" y1="982.0" x2="1153.6" y2="982.0" stroke="#455a64" stroke-width="1.5"/>
<circle class="pin-hit" data-comp="ecvt.J5" data-pin="6" data-pin-name="ENCODER_PWM/A" cx="1153.6" cy="982.0" r="6" fill="transparent" pointer-events="all"/>
<text x="889.8" y="1008.0" font-family="monospace" font-size="11" fill="#546e7a">7</text>
<line x1="905.8" y1="997.0" x2="905.8" y2="1012.0" stroke="#cfd8dc" stroke-width="1"/>
<text x="911.8" y="1008.0" font-family="sans-serif" font-size="11" fill="#263238" >ENCODER_B</text>
<line x1="1137.6" y1="1004.0" x2="1153.6" y2="1004.0" stroke="#455a64" stroke-width="1.5"/>
<circle class="pin-hit" data-comp="ecvt.J5" data-pin="7" data-pin-name="ENCODER_B" cx="1153.6" cy="1004.0" r="6" fill="transparent" pointer-events="all"/>
<text x="889.8" y="1030.0" font-family="monospace" font-size="11" fill="#546e7a">8</text>
<line x1="905.8" y1="1019.0" x2="905.8" y2="1034.0" stroke="#cfd8dc" stroke-width="1"/>
<text x="911.8" y="1030.0" font-family="sans-serif" font-size="11" fill="#263238" >GND</text>
<line x1="1137.6" y1="1026.0" x2="1153.6" y2="1026.0" stroke="#455a64" stroke-width="1.5"/>
<circle class="pin-hit" data-comp="ecvt.J5" data-pin="8" data-pin-name="GND" cx="1153.6" cy="1026.0" r="6" fill="transparent" pointer-events="all"/>
</g><g class="component" data-id="ecvt.J6">
<rect x="883.8" y="1078.0" width="253.7" height="78.0" rx="4" fill="#fff" stroke="#455a64" stroke-width="1.5"/>
<rect x="883.8" y="1078.0" width="253.7" height="26" rx="4" fill="#37474f"/>
<rect x="883.8" y="1100.0" width="253.7" height="4" fill="#37474f"/>
<text x="1010.7" y="1095.0" text-anchor="middle" fill="white" font-family="sans-serif" font-size="13" font-weight="600">ecvt-controller J6 (917780-1)</text>
<text x="889.8" y="1116.0" font-family="monospace" font-size="11" fill="#546e7a">1</text>
<line x1="905.8" y1="1105.0" x2="905.8" y2="1120.0" stroke="#cfd8dc" stroke-width="1"/>
<text x="911.8" y="1116.0" font-family="sans-serif" font-size="11" fill="#263238" >CANH</text>
<line x1="883.8" y1="1112.0" x2="867.8" y2="1112.0" stroke="#455a64" stroke-width="1.5"/>
<circle class="pin-hit" data-comp="ecvt.J6" data-pin="1" data-pin-name="CANH" cx="867.8" cy="1112.0" r="6" fill="transparent" pointer-events="all"/>
<text x="889.8" y="1138.0" font-family="monospace" font-size="11" fill="#546e7a">2</text>
<line x1="905.8" y1="1127.0" x2="905.8" y2="1142.0" stroke="#cfd8dc" stroke-width="1"/>
<text x="911.8" y="1138.0" font-family="sans-serif" font-size="11" fill="#263238" >CANL</text>
<line x1="883.8" y1="1134.0" x2="867.8" y2="1134.0" stroke="#455a64" stroke-width="1.5"/>
<circle class="pin-hit" data-comp="ecvt.J6" data-pin="2" data-pin-name="CANL" cx="867.8" cy="1134.0" r="6" fill="transparent" pointer-events="all"/>
</g><g class="component" data-id="hud.J3">
<rect x="1289.6" y="100.0" width="197.3" height="78.0" rx="4" fill="#fff" stroke="#455a64" stroke-width="1.5"/>
<rect x="1289.6" y="100.0" width="197.3" height="26" rx="4" fill="#37474f"/>
<rect x="1289.6" y="122.0" width="197.3" height="4" fill="#37474f"/>
<text x="1388.3" y="117.0" text-anchor="middle" fill="white" font-family="sans-serif" font-size="13" font-weight="600">hud-node J3 (917780-1)</text>
<text x="1295.6" y="138.0" font-family="monospace" font-size="11" fill="#546e7a">1</text>
<line x1="1311.6" y1="127.0" x2="1311.6" y2="142.0" stroke="#cfd8dc" stroke-width="1"/>
<text x="1317.6" y="138.0" font-family="sans-serif" font-size="11" fill="#263238" >CANL</text>
<line x1="1289.6" y1="134.0" x2="1273.6" y2="134.0" stroke="#455a64" stroke-width="1.5"/>
<circle class="pin-hit" data-comp="hud.J3" data-pin="1" data-pin-name="CANL" cx="1273.6" cy="134.0" r="6" fill="transparent" pointer-events="all"/>
<text x="1295.6" y="160.0" font-family="monospace" font-size="11" fill="#546e7a">2</text>
<line x1="1311.6" y1="149.0" x2="1311.6" y2="164.0" stroke="#cfd8dc" stroke-width="1"/>
<text x="1317.6" y="160.0" font-family="sans-serif" font-size="11" fill="#263238" >CANH</text>
<line x1="1289.6" y1="156.0" x2="1273.6" y2="156.0" stroke="#455a64" stroke-width="1.5"/>
<circle class="pin-hit" data-comp="hud.J3" data-pin="2" data-pin-name="CANH" cx="1273.6" cy="156.0" r="6" fill="transparent" pointer-events="all"/>
</g><g class="component" data-id="hud.J4">
<rect x="1289.6" y="208.0" width="197.3" height="78.0" rx="4" fill="#fff" stroke="#455a64" stroke-width="1.5"/>
<rect x="1289.6" y="208.0" width="197.3" height="26" rx="4" fill="#37474f"/>
<rect x="1289.6" y="230.0" width="197.3" height="4" fill="#37474f"/>
<text x="1388.3" y="225.0" text-anchor="middle" fill="white" font-family="sans-serif" font-size="13" font-weight="600">hud-node J4 (917780-1)</text>
<text x="1295.6" y="246.0" font-family="monospace" font-size="11" fill="#546e7a">1</text>
<line x1="1311.6" y1="235.0" x2="1311.6" y2="250.0" stroke="#cfd8dc" stroke-width="1"/>
<text x="1317.6" y="246.0" font-family="sans-serif" font-size="11" fill="#263238" >+24V</text>
<line x1="1289.6" y1="242.0" x2="1273.6" y2="242.0" stroke="#455a64" stroke-width="1.5"/>
<circle class="pin-hit" data-comp="hud.J4" data-pin="1" data-pin-name="+24V" cx="1273.6" cy="242.0" r="6" fill="transparent" pointer-events="all"/>
<text x="1295.6" y="268.0" font-family="monospace" font-size="11" fill="#546e7a">2</text>
<line x1="1311.6" y1="257.0" x2="1311.6" y2="272.0" stroke="#cfd8dc" stroke-width="1"/>
<text x="1317.6" y="268.0" font-family="sans-serif" font-size="11" fill="#263238" >GND</text>
<line x1="1289.6" y1="264.0" x2="1273.6" y2="264.0" stroke="#455a64" stroke-width="1.5"/>
<circle class="pin-hit" data-comp="hud.J4" data-pin="2" data-pin-name="GND" cx="1273.6" cy="264.0" r="6" fill="transparent" pointer-events="all"/>
</g><g class="component" data-id="hud.J6">
<rect x="1289.6" y="316.0" width="197.3" height="100.0" rx="4" fill="#fff" stroke="#455a64" stroke-width="1.5"/>
<rect x="1289.6" y="316.0" width="197.3" height="26" rx="4" fill="#37474f"/>
<rect x="1289.6" y="338.0" width="197.3" height="4" fill="#37474f"/>
<text x="1388.3" y="333.0" text-anchor="middle" fill="white" font-family="sans-serif" font-size="13" font-weight="600">hud-node J6 (917781-1)</text>
<text x="1295.6" y="354.0" font-family="monospace" font-size="11" fill="#546e7a">1</text>
<line x1="1311.6" y1="343.0" x2="1311.6" y2="358.0" stroke="#cfd8dc" stroke-width="1"/>
<text x="1317.6" y="354.0" font-family="sans-serif" font-size="11" fill="#263238" >+5V</text>
<line x1="1486.9" y1="350.0" x2="1502.9" y2="350.0" stroke="#455a64" stroke-width="1.5"/>
<circle class="pin-hit" data-comp="hud.J6" data-pin="1" data-pin-name="+5V" cx="1502.9" cy="350.0" r="6" fill="transparent" pointer-events="all"/>
<text x="1295.6" y="376.0" font-family="monospace" font-size="11" fill="#546e7a">2</text>
<line x1="1311.6" y1="365.0" x2="1311.6" y2="380.0" stroke="#cfd8dc" stroke-width="1"/>
<text x="1317.6" y="376.0" font-family="sans-serif" font-size="11" fill="#263238" >Brake</text>
<line x1="1486.9" y1="372.0" x2="1502.9" y2="372.0" stroke="#455a64" stroke-width="1.5"/>
<circle class="pin-hit" data-comp="hud.J6" data-pin="2" data-pin-name="Brake" cx="1502.9" cy="372.0" r="6" fill="transparent" pointer-events="all"/>
<text x="1295.6" y="398.0" font-family="monospace" font-size="11" fill="#546e7a">3</text>
<line x1="1311.6" y1="387.0" x2="1311.6" y2="402.0" stroke="#cfd8dc" stroke-width="1"/>
<text x="1317.6" y="398.0" font-family="sans-serif" font-size="11" fill="#263238" >GND</text>
<line x1="1486.9" y1="394.0" x2="1502.9" y2="394.0" stroke="#455a64" stroke-width="1.5"/>
<circle class="pin-hit" data-comp="hud.J6" data-pin="3" data-pin-name="GND" cx="1502.9" cy="394.0" r="6" fill="transparent" pointer-events="all"/>
</g><g class="component" data-id="BATTERY">
<rect x="120.0" y="100.0" width="157.0" height="78.0" rx="4" fill="#fff" stroke="#455a64" stroke-width="1.5"/>
<rect x="120.0" y="100.0" width="157.0" height="26" rx="4" fill="#37474f"/>
<rect x="120.0" y="122.0" width="157.0" height="4" fill="#37474f"/>
<text x="198.5" y="117.0" text-anchor="middle" fill="white" font-family="sans-serif" font-size="13" font-weight="600">Battery (12V/24V)</text>
<text x="126.0" y="138.0" font-family="monospace" font-size="11" fill="#546e7a">1</text>
<line x1="142.0" y1="127.0" x2="142.0" y2="142.0" stroke="#cfd8dc" stroke-width="1"/>
<text x="148.0" y="138.0" font-family="sans-serif" font-size="11" fill="#263238" >PWR</text>
<line x1="277.0" y1="134.0" x2="293.0" y2="134.0" stroke="#455a64" stroke-width="1.5"/>
<circle class="pin-hit" data-comp="BATTERY" data-pin="1" data-pin-name="PWR" cx="293.0" cy="134.0" r="6" fill="transparent" pointer-events="all"/>
<text x="126.0" y="160.0" font-family="monospace" font-size="11" fill="#546e7a">2</text>
<line x1="142.0" y1="149.0" x2="142.0" y2="164.0" stroke="#cfd8dc" stroke-width="1"/>
<text x="148.0" y="160.0" font-family="sans-serif" font-size="11" fill="#263238" >GND</text>
<line x1="277.0" y1="156.0" x2="293.0" y2="156.0" stroke="#455a64" stroke-width="1.5"/>
<circle class="pin-hit" data-comp="BATTERY" data-pin="2" data-pin-name="GND" cx="293.0" cy="156.0" r="6" fill="transparent" pointer-events="all"/>
</g><g class="bulkhead" data-id="MASTER_SWITCH">
<rect x="120.0" y="208.0" width="190.5" height="56.0" fill="#fff8f0" stroke="#e65100" stroke-width="2"/>
<rect x="120.0" y="208.0" width="190.5" height="26" fill="#e65100"/>
<text x="215.2" y="225.0" text-anchor="middle" fill="white" font-family="sans-serif" font-size="11" font-weight="600">Master switch + main fuse</text>
<line x1="215.2" y1="239.0" x2="215.2" y2="245.0" stroke="#e65100" stroke-width="2"/>
<line x1="120.0" y1="242.0" x2="104.0" y2="242.0" stroke="#455a64" stroke-width="1.5"/>
<text x="124.0" y="246.0" font-family="monospace" font-size="10" fill="#37474f">A1</text>
<circle class="pin-hit" data-comp="MASTER_SWITCH" data-pin="A1" data-pin-name="A1" cx="104.0" cy="242.0" r="6" fill="transparent" pointer-events="all"/>
<line x1="310.5" y1="242.0" x2="326.5" y2="242.0" stroke="#455a64" stroke-width="1.5"/>
<text x="286.5" y="246.0" font-family="monospace" font-size="10" fill="#37474f">B1</text>
<circle class="pin-hit" data-comp="MASTER_SWITCH" data-pin="B1" data-pin-name="B1" cx="326.5" cy="242.0" r="6" fill="transparent" pointer-events="all"/>
</g>
  </g>
</svg>